<svg xmlns="http://www.w3.org/2000/svg" width="92" height="92" fill="none" xmlns:v="https://vecta.io/nano"><style><![CDATA[.B{color-interpolation-filters:sRGB}.C{flood-opacity:0}.D{stroke:#121212}.E{stroke-width:.625}.F{fill:#121212}.G{fill:#0041ca}]]></style><g filter="url(#B)"><path d="M6 42C6 19.909 23.909 2 46 2s40 17.909 40 40-17.909 40-40 40S6 64.091 6 42z" fill="#ecf8ff"/><g filter="url(#C)"><path d="M36.689 51.5h18.625v9.643a6.11 6.11 0 0 1-6.107 6.107h-6.411a6.11 6.11 0 0 1-6.107-6.107V51.5z" fill="#040f25"/></g><path d="M37.002 51.813h18v9.33c0 3.2-2.594 5.795-5.795 5.795h-6.411c-3.2 0-5.795-2.594-5.795-5.795v-9.33z" class="D E"/><g filter="url(#D)" class="G"><path d="M16.689 41.721c0-2.78 2.253-5.033 5.033-5.033v17.764c-2.78 0-5.033-2.253-5.033-5.033v-7.698z"/></g><path d="M17.002 41.721a4.72 4.72 0 0 1 4.408-4.711V54.13a4.72 4.72 0 0 1-4.408-4.711v-7.698z" class="D E"/><g filter="url(#E)" class="G"><path d="M75.311 41.721c0-2.78-2.253-5.033-5.033-5.033v17.764c2.78 0 5.033-2.253 5.033-5.033v-7.698z"/></g><path d="M74.998 41.721a4.72 4.72 0 0 0-4.408-4.711V54.13a4.72 4.72 0 0 0 4.408-4.711v-7.698z" class="D E"/><g filter="url(#F)" class="F"><use href="#L"/></g><use href="#L" class="D E"/><g filter="url(#G)" class="F"><circle cx="36.469" cy="21.5" r="4.75"/></g><circle cx="36.469" cy="21.5" r="4.438" class="D E"/><ellipse cx="33.795" cy="19.537" rx=".438" ry=".25" transform="rotate(312.9 33.795 19.537)" fill="#fff" fill-opacity=".6"/><g filter="url(#H)"><rect x="20.689" y="27.547" width="50.625" height="35" rx="12.5" class="G"/><rect x="21.002" y="27.859" width="50" height="34.375" rx="12.188" class="D E"/><g style="mix-blend-mode:soft-light"><path d="M23.908 36.473c.732-3.073 8.194-8.779 8.194-8.779-5.121-.439-9.511 4.39-10.681 8.048-.878 2.742-.483 13.019-.044 17.994 2.532 6.125 7.095 8.25 9.875 8.25 0 0-6.466-3.272-7.343-7.368s-.732-15.071 0-18.144z" fill="#fff" fill-opacity=".4"/></g><g style="mix-blend-mode:soft-light" class="F"><path d="M65.463 58.128c-4.922 4.148-17.851 4.682-17.851 4.682h11.267c8.779 0 10.681-5.267 11.559-7.316 1.317-2.048.838-15.51.585-18.29-.226-2.487-2.341-5.721-3.658-6.438 0 0 3.019 23.214-1.902 27.362z" fill-opacity=".2"/></g><path d="M26.305 33.317c-.045-.047-.081-.103-.095-.167-.17-.755.634-1.683 1.639-1.414a.37.37 0 0 1 .197.139c.135.179.107.432-.064.577l-1.056.897c-.183.155-.454.141-.62-.032z" fill="#fff" fill-opacity=".6"/></g><g filter="url(#I)" class="F"><path d="M46.063 51.911c-2.081 0-4.334 4.339-9.478 4.339-6.165 0-10.334-5.037-10.334-11.25s4.138-11.25 11.162-11.25h8.651 8.651c7.024 0 11.162 5.037 11.162 11.25s-4.17 11.25-10.334 11.25c-5.144 0-7.397-4.339-9.478-4.339z"/></g><mask id="A" maskUnits="userSpaceOnUse" x="26" y="33" width="40" height="24" mask-type="alpha"><path d="M46.063 51.911c-2.081 0-4.334 4.339-9.478 4.339-6.165 0-10.334-5.037-10.334-11.25s4.138-11.25 11.162-11.25h8.651 8.651c7.024 0 11.162 5.037 11.162 11.25s-4.17 11.25-10.334 11.25c-5.144 0-7.397-4.339-9.478-4.339z" class="F"/></mask><g mask="url(#A)"><path d="M39.845 33.75h11.28l-7.47 22.5h-11.28l7.47-22.5z" fill="url(#J)"/><path d="M54.075 33.75h5.675l-7.45 22.5h-5.675l7.45-22.5z" fill="url(#K)"/></g><path d="M54.875 49.924l-3.855.042 5.067-5.395-5.279-5.322h3.855l5.279 5.279-5.067 5.395z" fill="#fff"/><path d="M37.25 49.924l3.855.042-5.067-5.395 5.279-5.322h-3.855l-5.279 5.279 5.067 5.395z" fill="#fff"/></g><defs><filter id="B" x="0" y="0" width="92" height="92" filterUnits="userSpaceOnUse" class="B"><feFlood result="A" class="C"/><feColorMatrix in="SourceAlpha" values="0 0 0 0 0 0 0 0 0 0 0 0 0 0 0 0 0 0 127 0" result="B"/><feMorphology radius="2" in="SourceAlpha" result="C"/><feOffset dy="2"/><feGaussianBlur stdDeviation="2"/><feComposite in2="B" operator="out"/><feColorMatrix values="0 0 0 0 0.0627451 0 0 0 0 0.0941176 0 0 0 0 0.156863 0 0 0 0.06 0"/><feBlend in2="A" result="C"/><feColorMatrix in="SourceAlpha" values="0 0 0 0 0 0 0 0 0 0 0 0 0 0 0 0 0 0 127 0" result="B"/><feMorphology radius="2" in="SourceAlpha"/><feOffset dy="4"/><feGaussianBlur stdDeviation="4"/><feComposite in2="B" operator="out"/><feColorMatrix values="0 0 0 0 0.0627451 0 0 0 0 0.0941176 0 0 0 0 0.156863 0 0 0 0.1 0"/><feBlend in2="C"/><feBlend in="SourceGraphic"/></filter><filter id="C" x="36.689" y="51.5" width="18.625" height="16.25" filterUnits="userSpaceOnUse" class="B"><feFlood class="C"/><feBlend in="SourceGraphic" result="B"/><feColorMatrix in="SourceAlpha" values="0 0 0 0 0 0 0 0 0 0 0 0 0 0 0 0 0 0 127 0" result="C"/><feOffset dy="12.375"/><feGaussianBlur stdDeviation=".25"/><feComposite in2="C" operator="arithmetic" k2="-1" k3="1"/><feColorMatrix values="0 0 0 0 0 0 0 0 0 0 0 0 0 0 0 0 0 0 0.25 0"/><feBlend in2="B"/></filter><filter id="D" x="16.689" y="36.688" width="5.533" height="19.185" filterUnits="userSpaceOnUse" class="B"><feFlood class="C"/><feBlend in="SourceGraphic" result="B"/><feColorMatrix in="SourceAlpha" values="0 0 0 0 0 0 0 0 0 0 0 0 0 0 0 0 0 0 127 0" result="C"/><feOffset dx="0.375" dy="1.625"/><feGaussianBlur stdDeviation=".711"/><feComposite in2="C" operator="arithmetic" k2="-1" k3="1"/><feColorMatrix values="0 0 0 0 1 0 0 0 0 1 0 0 0 0 1 0 0 0 0.25 0"/><feBlend in2="B" result="D"/><feColorMatrix in="SourceAlpha" values="0 0 0 0 0 0 0 0 0 0 0 0 0 0 0 0 0 0 127 0" result="C"/><feOffset dx="1.125" dy="3.375"/><feGaussianBlur stdDeviation=".25"/><feComposite in2="C" operator="arithmetic" k2="-1" k3="1"/><feColorMatrix values="0 0 0 0 1 0 0 0 0 1 0 0 0 0 1 0 0 0 0.04 0"/><feBlend in2="D"/></filter><filter id="E" x="69.389" y="35.563" width="5.921" height="18.889" filterUnits="userSpaceOnUse" class="B"><feFlood class="C"/><feBlend in="SourceGraphic" result="B"/><feColorMatrix in="SourceAlpha" values="0 0 0 0 0 0 0 0 0 0 0 0 0 0 0 0 0 0 127 0" result="C"/><feOffset dx="-0.888209" dy="-2.66463"/><feGaussianBlur stdDeviation=".563"/><feComposite in2="C" operator="arithmetic" k2="-1" k3="1"/><feColorMatrix values="0 0 0 0 0 0 0 0 0 0 0 0 0 0 0 0 0 0 0.25 0"/><feBlend in2="B" result="D"/><feColorMatrix in="SourceAlpha" values="0 0 0 0 0 0 0 0 0 0 0 0 0 0 0 0 0 0 127 0" result="C"/><feOffset dx="-2.125" dy="-3.625"/><feGaussianBlur stdDeviation=".25"/><feComposite in2="C" operator="arithmetic" k2="-1" k3="1"/><feColorMatrix values="0 0 0 0 0 0 0 0 0 0 0 0 0 0 0 0 0 0 0.05 0"/><feBlend in2="D"/></filter><filter id="F" x="35.154" y="18.214" width="13.472" height="11.217" filterUnits="userSpaceOnUse" class="B"><feFlood class="C"/><feBlend in="SourceGraphic" result="B"/><feColorMatrix in="SourceAlpha" values="0 0 0 0 0 0 0 0 0 0 0 0 0 0 0 0 0 0 127 0" result="C"/><feOffset dx="0.888258" dy="3.55303"/><feGaussianBlur stdDeviation=".296"/><feComposite in2="C" operator="arithmetic" k2="-1" k3="1"/><feColorMatrix values="0 0 0 0 1 0 0 0 0 1 0 0 0 0 1 0 0 0 0.02 0"/><feBlend in2="B"/></filter><filter id="G" x="31.719" y="16.75" width="10.218" height="10.092" filterUnits="userSpaceOnUse" class="B"><feFlood class="C"/><feBlend in="SourceGraphic" result="B"/><feColorMatrix in="SourceAlpha" values="0 0 0 0 0 0 0 0 0 0 0 0 0 0 0 0 0 0 127 0" result="C"/><feOffset dx="0.888258" dy="0.592172"/><feGaussianBlur stdDeviation=".359"/><feComposite in2="C" operator="arithmetic" k2="-1" k3="1"/><feColorMatrix values="0 0 0 0 1 0 0 0 0 1 0 0 0 0 1 0 0 0 0.1 0"/><feBlend in2="B"/></filter><filter id="H" x="19.518" y="26.376" width="52.972" height="37.604" filterUnits="userSpaceOnUse" class="B"><feFlood class="C"/><feBlend in="SourceGraphic" result="B"/><feColorMatrix in="SourceAlpha" values="0 0 0 0 0 0 0 0 0 0 0 0 0 0 0 0 0 0 127 0" result="C"/><feOffset dx="2.04846" dy="2.3411"/><feGaussianBlur stdDeviation=".585"/><feComposite in2="C" operator="arithmetic" k2="-1" k3="1"/><feColorMatrix values="0 0 0 0 1 0 0 0 0 1 0 0 0 0 1 0 0 0 0.04 0"/><feBlend in2="B" result="D"/><feColorMatrix in="SourceAlpha" values="0 0 0 0 0 0 0 0 0 0 0 0 0 0 0 0 0 0 127 0" result="C"/><feOffset dx="-2.3411" dy="-2.04846"/><feGaussianBlur stdDeviation=".585"/><feComposite in2="C" operator="arithmetic" k2="-1" k3="1"/><feColorMatrix values="0 0 0 0 0 0 0 0 0 0 0 0 0 0 0 0 0 0 0.25 0"/><feBlend in2="D" result="E"/><feColorMatrix in="SourceAlpha" values="0 0 0 0 0 0 0 0 0 0 0 0 0 0 0 0 0 0 127 0" result="C"/><feOffset dx="-5.125" dy="-2.75"/><feGaussianBlur stdDeviation=".25"/><feComposite in2="C" operator="arithmetic" k2="-1" k3="1"/><feColorMatrix values="0 0 0 0 0 0 0 0 0 0 0 0 0 0 0 0 0 0 0.15 0"/><feBlend in2="E" result="F"/><feColorMatrix in="SourceAlpha" values="0 0 0 0 0 0 0 0 0 0 0 0 0 0 0 0 0 0 127 0" result="C"/><feOffset dx="5" dy="1.75"/><feGaussianBlur stdDeviation=".25"/><feComposite in2="C" operator="arithmetic" k2="-1" k3="1"/><feColorMatrix values="0 0 0 0 1 0 0 0 0 1 0 0 0 0 1 0 0 0 0.05 0"/><feBlend in2="F"/></filter><filter id="I" x="26.25" y="33.25" width="39.625" height="23.891" filterUnits="userSpaceOnUse" class="B"><feFlood class="C"/><feBlend in="SourceGraphic" result="B"/><feColorMatrix in="SourceAlpha" values="0 0 0 0 0 0 0 0 0 0 0 0 0 0 0 0 0 0 127 0" result="C"/><feOffset dy="2.125"/><feGaussianBlur stdDeviation=".446"/><feComposite in2="C" operator="arithmetic" k2="-1" k3="1"/><feColorMatrix values="0 0 0 0 0 0 0 0 0 0 0 0 0 0 0 0 0 0 0.4 0"/><feBlend in2="B" result="D"/><feColorMatrix in="SourceAlpha" values="0 0 0 0 0 0 0 0 0 0 0 0 0 0 0 0 0 0 127 0" result="C"/><feOffset dy="3.875"/><feGaussianBlur stdDeviation=".25"/><feComposite in2="C" operator="arithmetic" k2="-1" k3="1"/><feColorMatrix values="0 0 0 0 0 0 0 0 0 0 0 0 0 0 0 0 0 0 0.1 0"/><feBlend in2="D" result="E"/><feColorMatrix in="SourceAlpha" values="0 0 0 0 0 0 0 0 0 0 0 0 0 0 0 0 0 0 127 0" result="C"/><feOffset dy="-0.75"/><feGaussianBlur stdDeviation=".25"/><feComposite in2="C" operator="arithmetic" k2="-1" k3="1"/><feColorMatrix values="0 0 0 0 1 0 0 0 0 1 0 0 0 0 1 0 0 0 0.05 0"/><feBlend in2="E"/></filter><linearGradient id="J" x1="41.75" y1="33.75" x2="41.75" y2="56.25" gradientUnits="userSpaceOnUse"><stop stop-color="#fff" stop-opacity=".04"/><stop offset="1" stop-color="#fff" stop-opacity="0"/></linearGradient><linearGradient id="K" x1="53.188" y1="33.75" x2="53.188" y2="56.25" gradientUnits="userSpaceOnUse"><stop stop-color="#fff" stop-opacity=".04"/><stop offset="1" stop-color="#fff" stop-opacity="0"/></linearGradient><path id="L" d="M40.896 18.531c-2.339-.131-5.328 2.777-5.328 2.777l1.102 1.481s1.917-1.957 3.491-2.036c1.796-.09 2.888.832 4.042 2.221 1.418 1.708 1.286 5.553 1.286 5.553h2.205s-.367-4.257-1.653-6.294c-1.325-2.099-2.679-3.564-5.144-3.702z"/></defs></svg>